<?xml version="1.0" standalone="no"?>
<!DOCTYPE svg PUBLIC "-//W3C//DTD SVG 20010904//EN"
 "http://www.w3.org/TR/2001/REC-SVG-20010904/DTD/svg10.dtd">
<svg version="1.0" xmlns="http://www.w3.org/2000/svg"
 width="696.000000pt" height="263.000000pt" viewBox="0 0 696.000000 263.000000"
 preserveAspectRatio="xMidYMid meet">
<metadata>
Created by potrace 1.16, written by Peter Selinger 2001-2019
</metadata>
<g transform="translate(0.000000,263.000000) scale(0.100000,-0.100000)"
fill="#000000" stroke="none">
<path d="M5898 2016 c-60 -36 -88 -66 -82 -90 5 -21 -48 -106 -67 -106 -5 0
-9 -14 -9 -31 0 -22 -5 -32 -20 -36 -10 -3 -22 -14 -25 -24 -9 -27 -54 -79
-69 -79 -7 0 -17 -15 -24 -34 -7 -18 -21 -41 -32 -51 -11 -10 -20 -28 -20 -40
0 -16 -9 -27 -31 -36 -18 -7 -37 -25 -45 -43 -8 -17 -24 -44 -38 -60 -21 -25
-29 -28 -70 -25 -40 4 -46 2 -46 -16 0 -10 -11 -28 -25 -40 -23 -19 -24 -23
-14 -57 11 -34 10 -40 -16 -74 -15 -20 -36 -39 -47 -42 -10 -2 -21 -14 -24
-27 -3 -12 -34 -51 -70 -86 -35 -35 -72 -72 -81 -81 -9 -10 -28 -18 -42 -18
-38 0 -47 -10 -55 -55 -4 -22 -12 -53 -18 -69 -10 -24 -9 -31 7 -42 47 -35
153 -3 197 58 26 38 88 107 135 150 17 17 44 48 59 70 15 22 40 46 55 54 15 7
42 34 60 59 34 47 54 52 88 19 12 -11 19 -11 41 1 21 11 41 12 81 6 34 -6 61
-5 73 1 10 5 32 7 50 4 19 -3 38 0 50 9 23 18 97 20 113 4 9 -9 24 -8 62 5 27
9 58 16 69 16 25 0 49 -27 57 -65 10 -40 75 -172 92 -186 7 -6 13 -17 13 -24
0 -26 40 -87 103 -157 15 -17 27 -35 27 -39 0 -5 9 -9 19 -9 11 0 32 -6 48
-14 121 -60 146 -61 179 -10 18 26 17 27 -7 45 -13 10 -28 23 -32 28 -14 14
-50 50 -75 74 -32 30 -112 145 -112 160 0 7 -11 29 -25 49 -14 20 -25 45 -25
55 0 10 -7 27 -15 37 -22 29 -20 86 3 88 9 0 28 3 42 4 14 2 48 5 75 7 28 1
63 11 79 22 17 11 38 18 49 17 25 -5 47 16 47 44 0 18 -7 25 -27 29 -16 3 -44
10 -64 15 -47 13 -86 13 -94 0 -3 -5 -44 -10 -90 -10 -94 0 -95 1 -95 80 0 27
-5 52 -11 55 -6 4 -8 13 -5 20 2 7 -4 21 -14 30 -10 9 -24 39 -29 66 -6 28
-22 71 -36 97 -14 26 -25 54 -25 63 0 10 -13 43 -30 74 -16 31 -30 65 -30 76
0 10 -6 23 -12 28 -27 22 -108 81 -111 80 -1 0 -19 -11 -39 -23z m44 -283 c11
-10 18 -30 18 -53 0 -21 7 -43 15 -50 8 -7 15 -19 15 -27 0 -7 6 -24 14 -36 7
-12 16 -40 20 -63 3 -22 13 -55 22 -72 11 -24 13 -36 5 -46 -7 -9 -7 -16 0
-23 18 -18 -29 -45 -54 -31 -11 6 -89 12 -173 13 -84 2 -161 6 -172 9 -19 6
-19 9 -5 39 9 18 28 46 43 62 15 17 31 40 34 52 4 12 19 28 34 35 15 7 28 21
30 31 2 9 15 30 30 46 15 16 43 52 62 80 19 28 37 51 39 51 3 0 13 -7 23 -17z"/>
<path d="M468 1952 c-27 -15 -46 -32 -43 -39 2 -7 -2 -30 -9 -50 -7 -21 -14
-71 -15 -112 -1 -41 -6 -82 -11 -92 -6 -10 -10 -53 -10 -96 0 -43 -5 -96 -11
-118 -6 -22 -14 -62 -16 -90 -3 -27 -10 -56 -15 -63 -6 -7 -8 -30 -4 -53 4
-22 2 -58 -4 -79 -9 -33 -6 -50 16 -117 35 -106 46 -124 104 -181 50 -50 72
-59 155 -67 146 -15 221 -16 277 -5 33 6 88 11 120 11 33 0 67 4 76 9 39 19
112 39 192 50 47 7 95 19 107 26 12 8 39 14 60 14 21 1 56 5 78 10 22 5 54 12
70 16 60 13 85 63 49 98 -19 19 -95 21 -112 4 -7 -7 -29 -13 -50 -15 -20 -1
-82 -7 -137 -12 -55 -6 -130 -14 -168 -17 -37 -4 -70 -11 -73 -15 -3 -5 -31
-9 -62 -9 -31 0 -102 -7 -157 -16 -191 -29 -301 1 -340 95 -17 38 -20 69 -20
186 0 139 5 169 57 375 11 47 28 152 32 207 2 18 9 39 15 47 10 12 7 25 -16
68 -34 65 -63 71 -135 30z"/>
<path d="M4702 1924 c-32 -14 -51 -28 -47 -34 4 -6 1 -17 -5 -25 -6 -8 -9 -19
-5 -25 4 -7 2 -31 -5 -56 -9 -33 -10 -47 -1 -57 13 -16 6 -203 -10 -278 -8
-35 -7 -52 2 -67 10 -16 10 -26 1 -44 -6 -13 -13 -54 -15 -93 -3 -38 -10 -85
-17 -103 l-12 -33 -32 24 c-17 13 -69 38 -116 56 -47 18 -97 44 -112 56 -15
13 -41 26 -57 30 -16 3 -37 15 -47 27 -11 11 -32 27 -49 36 -38 19 -182 131
-215 167 -14 15 -37 33 -52 41 -16 8 -28 21 -28 29 0 8 -23 31 -51 51 -35 26
-52 46 -56 66 -3 16 -14 35 -24 41 -11 7 -19 16 -19 20 0 5 -9 20 -20 34 -11
14 -20 34 -20 44 0 10 -20 40 -45 66 -35 38 -47 45 -57 35 -6 -6 -22 -12 -34
-12 -49 0 -54 -18 -54 -198 0 -92 -3 -216 -6 -277 -4 -60 -7 -132 -6 -158 1
-27 -4 -60 -12 -75 -9 -19 -11 -34 -4 -52 11 -30 14 -258 3 -322 -11 -69 10
-98 69 -98 42 0 45 2 66 45 12 24 18 49 15 55 -4 6 1 20 10 30 10 11 14 24 9
31 -11 19 -5 104 12 152 9 26 11 43 5 45 -6 2 -8 16 -4 32 3 16 0 43 -5 60 -9
24 -7 43 7 89 12 40 15 65 9 82 -5 13 -7 52 -3 87 l7 62 27 -20 c16 -10 43
-33 61 -50 18 -16 38 -30 45 -30 8 0 29 -19 49 -42 22 -27 53 -50 83 -62 53
-22 133 -75 133 -88 0 -5 15 -16 33 -24 17 -8 59 -32 92 -53 107 -67 155 -91
186 -91 17 0 44 -9 60 -21 16 -11 35 -19 42 -16 6 2 20 -3 30 -11 10 -9 30
-16 45 -17 27 0 27 -1 34 -82 4 -45 11 -91 17 -102 6 -11 11 -33 11 -49 0 -34
15 -49 58 -58 26 -5 35 -1 61 27 27 32 29 36 15 57 -23 35 -23 182 0 216 13
20 15 36 10 59 -4 18 -6 37 -5 42 2 6 10 66 18 135 8 69 16 139 19 155 3 17 8
62 12 100 4 39 13 79 19 90 19 34 32 128 21 149 -9 17 -14 46 -20 126 -1 14 1
35 6 48 6 19 4 22 -16 22 -13 0 -32 6 -43 14 -17 12 -27 11 -73 -10z"/>
<path d="M2819 1845 c-35 -29 -49 -57 -49 -95 0 -18 -6 -46 -14 -63 -8 -18
-22 -59 -31 -91 -9 -32 -24 -71 -33 -85 -24 -37 -144 -157 -164 -164 -10 -4
-18 -15 -18 -25 0 -19 -58 -72 -79 -72 -6 0 -17 -13 -26 -30 -9 -16 -24 -30
-33 -30 -10 0 -31 -13 -47 -30 -16 -17 -37 -30 -47 -30 -9 0 -22 -9 -27 -19
-6 -10 -35 -33 -66 -50 -30 -17 -65 -41 -77 -53 -28 -28 -86 -58 -113 -58 -16
0 -24 13 -39 60 -17 54 -17 62 -3 78 8 10 12 25 8 35 -4 10 -4 44 0 75 3 32 2
65 -2 74 -13 24 -10 92 5 172 11 58 11 75 0 101 -11 27 -10 42 3 101 8 38 19
73 24 78 16 17 10 42 -21 84 -24 34 -36 42 -75 48 -40 5 -50 3 -70 -16 -22
-20 -24 -30 -23 -114 1 -116 -7 -325 -13 -330 -2 -3 -3 -80 -2 -173 1 -163 23
-335 44 -357 5 -6 9 -17 9 -26 0 -9 17 -33 38 -53 48 -47 100 -51 153 -12 19
13 45 30 59 37 77 38 360 234 360 248 0 5 8 11 19 15 10 3 45 31 78 63 33 31
85 79 114 107 l54 49 3 -29 c11 -126 51 -287 92 -364 5 -9 18 -38 31 -64 29
-65 64 -104 98 -112 16 -3 37 -15 47 -27 11 -11 33 -27 51 -34 34 -15 115 -19
127 -7 7 7 60 28 113 44 40 12 65 55 57 97 -6 28 -10 30 -59 37 -34 4 -62 2
-76 -5 -11 -7 -32 -10 -45 -7 -13 2 -24 0 -24 -4 0 -5 -11 -9 -24 -9 -35 0
-119 96 -146 168 -32 83 -51 173 -63 292 -7 77 -7 105 2 108 13 4 15 37 2 60
-5 10 -4 49 3 99 10 67 17 88 39 111 17 18 27 39 27 58 0 17 6 36 13 43 10 10
7 16 -13 32 -14 11 -34 28 -45 38 -11 10 -34 25 -50 34 -29 14 -32 14 -56 -8z"/>
</g>
</svg>
